<?xml version="1.0" encoding="UTF-8"?>
<svg version="1.1" xmlns="http://www.w3.org/2000/svg" width="150" height="150">
<path d="M0 0 C9.05937056 9.5243648 14.00670848 20.49910164 14.9296875 33.4609375 C15.44065803 36.68318021 16.73855219 39.05913211 18.47265625 41.79296875 C20.79302034 47.54531322 18.87549532 53.39137704 17.0625 59 C16.85753906 59.68964844 16.65257812 60.37929687 16.44140625 61.08984375 C15.08977068 65.37411893 13.55964802 68.6340965 10.3125 71.875 C7.0625 72.1875 7.0625 72.1875 4.3125 71.875 C4.2196875 73.793125 4.2196875 73.793125 4.125 75.75 C2.15695501 93.16173135 -15.99155779 110.00671393 -28.69921875 120.54296875 C-34.17980132 124.59693547 -38.93118355 126.1529979 -45.6875 126.75 C-46.88375 126.87117187 -48.08 126.99234375 -49.3125 127.1171875 C-53.43382282 126.82144443 -54.76862814 125.71851372 -57.6875 122.875 C-58.26113281 122.35421875 -58.83476563 121.8334375 -59.42578125 121.296875 C-66.73185323 113.53757275 -71.58009531 103.00166909 -74.6875 92.875 C-75.3475 92.875 -76.0075 92.875 -76.6875 92.875 C-77.244375 91.823125 -77.80125 90.77125 -78.375 89.6875 C-80.3532846 86.19017544 -82.80575035 83.67886452 -85.6875 80.875 C-86.79727901 77.54566298 -86.82051537 75.00271692 -86.8125 71.5 C-86.81507812 70.37851563 -86.81765625 69.25703125 -86.8203125 68.1015625 C-86.6875 64.875 -86.6875 64.875 -86.0625 62.2890625 C-85.57955083 59.18007724 -86.34230195 57.50298436 -87.5625 54.625 C-89.65487439 49.67938781 -90.27534635 45.17597617 -90.6875 39.875 C-90.76419922 38.90643066 -90.84089844 37.93786133 -90.91992188 36.93994141 C-91.15002642 33.73198385 -91.32955495 30.52414436 -91.5 27.3125 C-91.57669922 26.22775391 -91.65339844 25.14300781 -91.73242188 24.02539062 C-92.16161282 15.50879442 -90.63841239 10.75947377 -85.5390625 4.046875 C-77.89822797 -4.26420817 -77.89822797 -4.26420817 -72.6875 -7.125 C-71.90632813 -7.61742187 -71.12515625 -8.10984375 -70.3203125 -8.6171875 C-48.98451305 -20.96949244 -17.74767835 -16.5505331 0 0 Z " fill="#0C0B09" transform="translate(115.6875,19.125)"/>
<path d="M0 0 C2 1 2 1 2.79296875 2.90625 C6.78789771 9.83596495 21.71840575 11.87542173 29 14 C29.83789062 14.22042969 30.67578125 14.44085938 31.5390625 14.66796875 C37.69434455 16.41302294 41.53909536 19.47523783 46 24 C46.93005859 24.8971875 46.93005859 24.8971875 47.87890625 25.8125 C54.01662092 32.17557352 58.28422158 40.27160042 58.3125 49.25 C58.209375 50.4875 58.10625 51.725 58 53 C55.18185434 54.40907283 53.82722796 53.50872691 50.875 52.5625 C49.50988281 52.13130859 49.50988281 52.13130859 48.1171875 51.69140625 C47.41851562 51.46324219 46.71984375 51.23507813 46 51 C46.66 49.68 47.32 48.36 48 47 C47.01 47.99 47.01 47.99 46 49 C42.57356128 48.76637918 40.29164394 48.16956043 37.3125 46.4375 C32.560455 44.37529179 28.10736027 44.7546286 23 45 C23 45.33 23 45.66 23 46 C23.64066406 45.95359375 24.28132813 45.9071875 24.94140625 45.859375 C31.2914781 45.59439436 34.77544617 46.36552777 40 50 C37.50037931 54.6867888 35.4628088 56.89706464 30.37109375 58.54296875 C25.93474175 59.39808108 21.49443743 59.2230695 17 59 C17 58.34 17 57.68 17 57 C17.96421875 56.87882812 18.9284375 56.75765625 19.921875 56.6328125 C21.81679687 56.38144531 21.81679687 56.38144531 23.75 56.125 C25.00296875 55.96257813 26.2559375 55.80015625 27.546875 55.6328125 C30.48616408 55.0941645 32.47107147 54.51991159 35 53 C35 52.34 35 51.68 35 51 C31.25086754 49.75028918 27.87627697 49.21051974 24 50 C21.93952141 51.39949338 20.27959207 52.90550172 18.54296875 54.6875 C17 56 17 56 14 56 C14 54.68 14 53.36 14 52 C13.34 52.99 12.68 53.98 12 55 C11.62735808 51.24618069 11.66177999 49.49359886 13.828125 46.33203125 C14.62734375 45.50058594 15.4265625 44.66914062 16.25 43.8125 C17.03890625 42.97332031 17.8278125 42.13414063 18.640625 41.26953125 C22.25221583 37.79546789 24.53027673 35.69588219 29.625 35.3125 C30.78902344 35.21388672 30.78902344 35.21388672 31.9765625 35.11328125 C33.31614215 35.03828548 34.65832269 35 36 35 C36.66 34.34 37.32 33.68 38 33 C31.64943145 30.39463854 25.979467 30.11138703 19.4375 32.0625 C15.16727466 34.46935428 11.14787208 37.19802463 8 41 C8 42.32 8 43.64 8 45 C11.41294213 43.51071616 13.78431481 41.52967935 16.5 39 C21.06894235 34.7439989 23.90123086 32.70792713 30.25 32.875 C31.58804688 32.90207031 31.58804688 32.90207031 32.953125 32.9296875 C33.62859375 32.95289063 34.3040625 32.97609375 35 33 C35 33.33 35 33.66 35 34 C34.29875 34.06316406 33.5975 34.12632813 32.875 34.19140625 C25.24686878 35.17601558 21.18985197 37.3991869 16 43 C15.47148438 43.52207031 14.94296875 44.04414062 14.3984375 44.58203125 C12.07623343 47.040454 11.03922249 48.78209728 10.4375 52.125 C10.83656473 55.02038746 10.83656473 55.02038746 12.375 57.3125 C17.10516643 60.35332128 22.20059454 60.50077341 27.6640625 59.5234375 C31.66582354 58.42325546 34.5849798 57.3090576 37.9375 54.8125 C43.24248022 51.67281783 48.68167763 52.28388788 54.5703125 53.5546875 C58.17944688 54.80537763 60.35025596 55.93862835 62.375 59.24609375 C63.43793118 61.8135415 64.26050877 64.321739 65 67 C65.350625 68.11632812 65.70125 69.23265625 66.0625 70.3828125 C68.87194485 81.22258719 67.62811476 90.20979663 62.02734375 99.80859375 C56.87919132 107.91271809 50.59897885 114.56619769 43.875 121.375 C43.19381104 122.06577637 42.51262207 122.75655273 41.81079102 123.46826172 C32.72526544 132.49297387 32.72526544 132.49297387 27.3125 133.5 C25 133 25 133 23.3737793 131.29394531 C21.73005577 128.54924542 21.65160174 126.97483364 21.70703125 123.796875 C21.7215332 122.32734375 21.7215332 122.32734375 21.73632812 120.828125 C21.76146484 119.81234375 21.78660156 118.7965625 21.8125 117.75 C21.83280273 116.203125 21.83280273 116.203125 21.85351562 114.625 C21.88882393 112.08280208 21.93813964 109.54166777 22 107 C22.92941406 106.56429687 23.85882813 106.12859375 24.81640625 105.6796875 C31.63024902 102.41997309 37.53612426 99.33378346 43 94 C42.505 94.391875 42.01 94.78375 41.5 95.1875 C36.21779434 99.0170991 31.59740673 102.14508324 25.14453125 103.46875 C21.74892262 104.30992081 18.60434553 105.72350312 15.39453125 107.09765625 C9.47980888 109.32653205 3.25553531 109.68646524 -3 109 C-6.71973623 106.58217145 -8.3219542 103.0626372 -10 99 C-9.505 98.01 -9.505 98.01 -9 97 C-7.68 98.98 -6.36 100.96 -5 103 C-0.65815798 102.81535634 -0.65815798 102.81535634 3 101 C4.49765479 100.86628082 5.99857593 100.76859544 7.5 100.6875 C12.1401087 100.272263 15.56713793 99.0744164 19.71875 97.03515625 C22.11730658 95.94677013 24.45911841 95.24869487 27 94.5625 C33.97139707 92.55360832 41.30456866 89.58750805 45 83 C45.33513594 79.79019864 45.33513594 79.79019864 45 77 C50.75 74 50.75 74 53 74 C51.48271703 82.34505633 48.58031631 90.10910566 45.6953125 98.05615234 C44.75324496 100.68983976 43.87066124 103.34197171 43 106 C51.04696594 89.20104906 51.04696594 89.20104906 54 71 C52.453125 71.99 52.453125 71.99 50.875 73 C47.46423174 74.97282726 44.9798357 75.38827665 41 75 C41 75.33 41 75.66 41 76 C35.72 76 30.44 76 25 76 C24.67 78.31 24.34 80.62 24 83 C21.525 83.495 21.525 83.495 19 84 C19.495 82.02 19.495 82.02 20 80 C18.2675 80.495 18.2675 80.495 16.5 81 C12.10366569 82.06601381 8.52239881 82.5189638 4 82 C1.0625 79.5625 1.0625 79.5625 -1 77 C-1.495 76.505 -1.495 76.505 -2 76 C-2.14124215 71.69211452 -2.08139359 68.15859447 -1 64 C-0.38807612 60.50164271 -0.16950366 57.47497155 -1 54 C-4.14127896 50.23639219 -7.88510312 48.36633585 -12.68359375 47.53515625 C-17.58567942 47.35305797 -20.20243507 47.74122003 -24 51 C-25.03277243 37.38270421 -25.03277243 37.38270421 -21.4375 32.5 C-19.76953125 30.671875 -19.76953125 30.671875 -18 29 C-17.44699219 28.44828125 -16.89398438 27.8965625 -16.32421875 27.328125 C-8.00856927 19.60508503 2.8862867 16.20801232 14 15 C11.81426296 13.54284197 9.73327639 12.2774627 7.42578125 11.0546875 C6.75869141 10.70019531 6.09160156 10.34570312 5.40429688 9.98046875 C4.71400391 9.61566406 4.02371094 9.25085937 3.3125 8.875 C2.61060547 8.50246094 1.90871094 8.12992188 1.18554688 7.74609375 C-0.54222117 6.82931887 -2.27101153 5.91447114 -4 5 C-4 4.01 -4 3.02 -4 2 C-2.125 0.9375 -2.125 0.9375 0 0 Z " fill="#F5F1DB" transform="translate(51,8)"/>
<path d="M0 0 C7.91474593 7.38086762 15.22964307 17.5769201 15.82421875 28.68359375 C15.80101562 29.91335937 15.7778125 31.143125 15.75390625 32.41015625 C15.73585938 33.65539063 15.7178125 34.900625 15.69921875 36.18359375 C15.67601562 37.12460937 15.6528125 38.065625 15.62890625 39.03515625 C14.69433594 39.00550781 13.75976562 38.97585937 12.796875 38.9453125 C9.14029084 39.04901341 7.61346067 40.01856542 4.62890625 42.03515625 C3.14390625 42.53015625 3.14390625 42.53015625 1.62890625 43.03515625 C1.29890625 45.01515625 0.96890625 46.99515625 0.62890625 49.03515625 C-0.07234375 48.74640625 -0.77359375 48.45765625 -1.49609375 48.16015625 C-2.44484375 47.78890625 -3.39359375 47.41765625 -4.37109375 47.03515625 C-5.23734375 46.66390625 -6.10359375 46.29265625 -6.99609375 45.91015625 C-12.40826951 44.50699957 -18.37406219 43.60825096 -23.578125 46.0859375 C-24.89381549 46.96565954 -26.19629917 47.86547533 -27.484375 48.78515625 C-32.82588445 52.3240445 -38.89788 52.45774313 -45.09375 51.63671875 C-48.70561894 50.68264016 -50.326651 49.10182037 -52.37109375 46.03515625 C-53.02236576 41.8832972 -52.63176089 40.40389358 -50.17578125 36.9296875 C-49.21458565 35.88795216 -48.23739453 34.86078619 -47.24609375 33.84765625 C-46.77171875 33.32751953 -46.29734375 32.80738281 -45.80859375 32.27148438 C-42.65713793 28.93690342 -39.63992367 26.87822673 -35.37109375 25.03515625 C-41.47342944 26.65414327 -44.60300377 29.79065618 -49.00390625 34.13671875 C-51.37109375 36.03515625 -51.37109375 36.03515625 -55.37109375 36.03515625 C-54.76714237 30.36197363 -51.90874415 28.29026233 -47.703125 24.7734375 C-42.39366229 20.81579779 -36.80696347 20.28881169 -30.37109375 21.03515625 C-27.56452611 21.84035725 -25.05739456 22.86295226 -22.37109375 24.03515625 C-22.86609375 25.02515625 -22.86609375 25.02515625 -23.37109375 26.03515625 C-22.71109375 26.69515625 -22.05109375 27.35515625 -21.37109375 28.03515625 C-22.23992187 27.92816406 -23.10875 27.82117187 -24.00390625 27.7109375 C-32.68253807 26.5715014 -32.68253807 26.5715014 -40.37109375 30.03515625 C-43.80699929 33.13478168 -46.7988712 36.17682243 -49.37109375 40.03515625 C-49.37109375 41.02515625 -49.37109375 42.01515625 -49.37109375 43.03515625 C-48.38109375 42.54015625 -48.38109375 42.54015625 -47.37109375 42.03515625 C-47.86609375 44.51015625 -47.86609375 44.51015625 -48.37109375 47.03515625 C-45.64231023 45.47585138 -43.35120484 44.01634242 -41.05859375 41.84765625 C-37.20455604 39.24842151 -34.97880238 39.59632686 -30.37109375 40.03515625 C-27.87109375 41.03515625 -27.87109375 41.03515625 -26.37109375 42.03515625 C-26.70109375 43.02515625 -27.03109375 44.01515625 -27.37109375 45.03515625 C-33.48447942 48.03627285 -38.63080066 48.4080823 -45.37109375 48.03515625 C-45.37109375 48.69515625 -45.37109375 49.35515625 -45.37109375 50.03515625 C-38.27573065 49.76990903 -31.36848575 49.18719687 -25.37109375 45.03515625 C-24.11085968 42.9912064 -24.11085968 42.9912064 -23.37109375 41.03515625 C-28.0415889 38.29752755 -31.35909094 37.69519391 -36.74609375 37.84765625 C-37.99132812 37.87472656 -39.2365625 37.90179688 -40.51953125 37.9296875 C-41.93105469 37.98189453 -41.93105469 37.98189453 -43.37109375 38.03515625 C-39.3680577 34.50911749 -36.35754023 34.54994539 -31.19140625 34.66015625 C-27.62986353 35.13371318 -25.16196805 36.42531156 -22.0859375 38.19921875 C-20.26751525 39.24766854 -20.26751525 39.24766854 -17.55859375 38.97265625 C-15.24305402 37.98028208 -13.96704761 36.96710039 -12.37109375 35.03515625 C-12.94454312 37.90240311 -13.23254525 38.89660775 -15.37109375 41.03515625 C-12.07109375 42.02515625 -8.77109375 43.01515625 -5.37109375 44.03515625 C-4.61256329 34.93279071 -6.98131588 27.50377843 -12.53125 20.1875 C-18.90057213 12.96751715 -24.18157107 8.76416601 -33.37109375 6.03515625 C-36.93801946 4.90300128 -40.49777779 3.74885911 -44.05859375 2.59765625 C-45.42467773 2.16743164 -45.42467773 2.16743164 -46.81835938 1.72851562 C-51.90459091 0.07004216 -56.19694301 -1.57292482 -60.37109375 -4.96484375 C-60.70109375 -5.95484375 -61.03109375 -6.94484375 -61.37109375 -7.96484375 C-59.1609942 -10.52685352 -57.77138134 -11.36886919 -54.4140625 -11.73046875 C-53.63820801 -11.8166748 -52.86235352 -11.90288086 -52.06298828 -11.99169922 C-51.23653809 -12.06533691 -50.41008789 -12.13897461 -49.55859375 -12.21484375 C-48.7063623 -12.29492676 -47.85413086 -12.37500977 -46.97607422 -12.45751953 C-29.77196848 -13.90115296 -13.58870516 -11.26049208 0 0 Z " fill="#0A0908" transform="translate(113.37109375,16.96484375)"/>
<path d="M0 0 C2.76392422 1.19284404 5.40815081 2.58236439 8.0625 4 C14.23004037 7.32983465 14.23004037 7.32983465 21 9 C21 9.33 21 9.66 21 10 C19.98421875 10.15855469 18.9684375 10.31710938 17.921875 10.48046875 C3.29554462 12.90392437 -9.630717 16.83686454 -19 29 C-21.42130331 32.63195496 -21.21022785 34.38349348 -21.125 38.6875 C-21.10695313 39.86699219 -21.08890625 41.04648437 -21.0703125 42.26171875 C-21.04710937 43.16535156 -21.02390625 44.06898437 -21 45 C-20.01 44.01 -19.02 43.02 -18 42 C-17.34 42.33 -16.68 42.66 -16 43 C-16.66 43.66 -17.32 44.32 -18 45 C-11.91752901 46.52702478 -11.91752901 46.52702478 -5.6875 46.9375 C-3 47 -3 47 -0.5625 47.9375 C1.40645764 50.53652408 1.09445512 51.51252239 0.75 54.6875 C0.52019671 56.12836665 0.27632268 57.56732696 0 59 C-1.32 58.67 -2.64 58.34 -4 58 C-2.68 58.66 -1.36 59.32 0 60 C-1.34536377 64.4030087 -3.16052312 66.471564 -7 69 C-7.99 69 -8.98 69 -10 69 C-10 69.66 -10 70.32 -10 71 C-7.03 69.35 -4.06 67.7 -1 66 C-1.0825 66.886875 -1.165 67.77375 -1.25 68.6875 C-1.30588684 72.11538017 -1.30588684 72.11538017 1.0625 74.5625 C3 77 3 77 2.75 79.8125 C2.5025 80.534375 2.255 81.25625 2 82 C2.556875 81.855625 3.11375 81.71125 3.6875 81.5625 C5.25969768 81.18007354 6.84490917 80.84834964 8.4375 80.5625 C11.11385371 79.97500772 13.48544067 79.07766829 16 78 C16.99 78.99 17.98 79.98 19 81 C16.525 81.99 16.525 81.99 14 83 C13.91773332 86.04386724 14.02391783 88.07175348 15 91 C13.68 91 12.36 91 11 91 C10.34 89.02 9.68 87.04 9 85 C8.01 85 7.02 85 6 85 C4.71179492 86.78217453 4.71179492 86.78217453 3.625 89 C2.33984375 91.21875 2.33984375 91.21875 1 93 C-1.8125 93.5 -1.8125 93.5 -4 93 C-5.1875 91.375 -5.1875 91.375 -6 89 C-4.625 85.75 -4.625 85.75 -3 83 C-2.34 83 -1.68 83 -1 83 C-1.99 82.01 -2.98 81.02 -4 80 C-4.68835937 80.74056641 -4.68835937 80.74056641 -5.390625 81.49609375 C-6.00421875 82.13675781 -6.6178125 82.77742188 -7.25 83.4375 C-7.85328125 84.07558594 -8.4565625 84.71367188 -9.078125 85.37109375 C-11.10048016 87.08516306 -12.41270605 87.59358878 -15 88 C-14.34 89.32 -13.68 90.64 -13 92 C-18.875 87.375 -18.875 87.375 -20 84 C-20.09523918 81.87672644 -20.12986362 79.75040289 -20.125 77.625 C-20.12757812 76.50351563 -20.13015625 75.38203125 -20.1328125 74.2265625 C-20 71 -20 71 -19.375 68.4140625 C-18.89205083 65.30507724 -19.65480195 63.62798436 -20.875 60.75 C-22.96737439 55.80438781 -23.58784635 51.30097617 -24 46 C-24.07669922 45.03143066 -24.15339844 44.06286133 -24.23242188 43.06494141 C-24.46252642 39.85698385 -24.64205495 36.64914436 -24.8125 33.4375 C-24.88919922 32.35275391 -24.96589844 31.26800781 -25.04492188 30.15039062 C-25.47411282 21.63379442 -23.95091239 16.88447377 -18.8515625 10.171875 C-7.72459016 -1.93114754 -7.72459016 -1.93114754 0 0 Z " fill="#1B1710" transform="translate(49,13)"/>
<path d="M0 0 C-1.51728297 8.34505633 -4.41968369 16.10910566 -7.3046875 24.05615234 C-8.24675504 26.68983976 -9.12933876 29.34197171 -10 32 C-9.01 29.69 -8.02 27.38 -7 25 C-6.443125 25.185625 -5.88625 25.37125 -5.3125 25.5625 C-2.600867 26.07551165 -0.65628961 25.6640724 2 25 C2 24.01 2 23.02 2 22 C2.66 22 3.32 22 4 22 C4.495 23.485 4.495 23.485 5 25 C5.99 24.505 5.99 24.505 7 24 C7.495 25.485 7.495 25.485 8 27 C4.14433636 34.68276681 -2.63611747 40.91516721 -8.625 46.9375 C-9.71723877 48.03795654 -9.71723877 48.03795654 -10.83154297 49.16064453 C-20.29198654 58.49618354 -20.29198654 58.49618354 -25.6875 59.5 C-28 59 -28 59 -29.6262207 57.29394531 C-31.26994423 54.54924542 -31.34839826 52.97483364 -31.29296875 49.796875 C-31.28330078 48.8171875 -31.27363281 47.8375 -31.26367188 46.828125 C-31.23853516 45.81234375 -31.21339844 44.7965625 -31.1875 43.75 C-31.16719727 42.203125 -31.16719727 42.203125 -31.14648438 40.625 C-31.11117607 38.08280208 -31.06186036 35.54166777 -31 33 C-30.07058594 32.56429687 -29.14117187 32.12859375 -28.18359375 31.6796875 C-21.36975098 28.41997309 -15.46387574 25.33378346 -10 20 C-10.495 20.391875 -10.99 20.78375 -11.5 21.1875 C-16.78220566 25.0170991 -21.40259327 28.14508324 -27.85546875 29.46875 C-31.25107738 30.30992081 -34.39565447 31.72350312 -37.60546875 33.09765625 C-43.52019112 35.32653205 -49.74446469 35.68646524 -56 35 C-59.71973623 32.58217145 -61.3219542 29.0626372 -63 25 C-62.67 24.34 -62.34 23.68 -62 23 C-60.02 25.97 -60.02 25.97 -58 29 C-53.65815798 28.81535634 -53.65815798 28.81535634 -50 27 C-48.50234521 26.86628082 -47.00142407 26.76859544 -45.5 26.6875 C-40.8598913 26.272263 -37.43286207 25.0744164 -33.28125 23.03515625 C-30.88269342 21.94677013 -28.54088159 21.24869487 -26 20.5625 C-19.02860293 18.55360832 -11.69543134 15.58750805 -8 9 C-7.66486406 5.79019864 -7.66486406 5.79019864 -8 3 C-2.25 0 -2.25 0 0 0 Z " fill="#EAE7D0" transform="translate(104,82)"/>
<path d="M0 0 C2.76392422 1.19284404 5.40815081 2.58236439 8.0625 4 C14.23004037 7.32983465 14.23004037 7.32983465 21 9 C21 9.33 21 9.66 21 10 C19.98421875 10.15855469 18.9684375 10.31710938 17.921875 10.48046875 C3.29554462 12.90392437 -9.630717 16.83686454 -19 29 C-21.12508244 32.18762365 -21.5020163 34.26512223 -22 38 C-22.33 38 -22.66 38 -23 38 C-26.0170514 20.06077549 -26.0170514 20.06077549 -22.53515625 14.83203125 C-22.02855469 14.22746094 -21.52195312 13.62289063 -21 13 C-20.31808594 12.15824219 -19.63617187 11.31648438 -18.93359375 10.44921875 C-8.23561848 -2.05890462 -8.23561848 -2.05890462 0 0 Z " fill="#12110F" transform="translate(49,13)"/>
<path d="M0 0 C-0.33 0.66 -0.66 1.32 -1 2 C-0.34 2.66 0.32 3.32 1 4 C-0.30324219 3.83951172 -0.30324219 3.83951172 -1.6328125 3.67578125 C-10.31144432 2.53634515 -10.31144432 2.53634515 -18 6 C-21.43590554 9.09962543 -24.42777745 12.14166618 -27 16 C-27 16.99 -27 17.98 -27 19 C-26.34 18.67 -25.68 18.34 -25 18 C-25.33 19.65 -25.66 21.3 -26 23 C-23.27121648 21.44069513 -20.98011109 19.98118617 -18.6875 17.8125 C-14.83346229 15.21326526 -12.60770863 15.56117061 -8 16 C-5.5 17 -5.5 17 -4 18 C-4.33 18.99 -4.66 19.98 -5 21 C-11.11338567 24.0011166 -16.25970691 24.37292605 -23 24 C-23 24.66 -23 25.32 -23 26 C-15.9046369 25.73475278 -8.997392 25.15204062 -3 21 C-1.73976593 18.95605015 -1.73976593 18.95605015 -1 17 C-5.67049515 14.2623713 -8.98799719 13.66003766 -14.375 13.8125 C-15.62023437 13.83957031 -16.86546875 13.86664063 -18.1484375 13.89453125 C-19.55996094 13.94673828 -19.55996094 13.94673828 -21 14 C-16.99696395 10.47396124 -13.98644648 10.51478914 -8.8203125 10.625 C-5.25876978 11.09855693 -2.7908743 12.39015531 0.28515625 14.1640625 C2.1035785 15.21251229 2.1035785 15.21251229 4.8125 14.9375 C7.12803973 13.94512583 8.40404614 12.93194414 10 11 C9.42655063 13.86724686 9.1385485 14.8614515 7 17 C10.3 18.32 13.6 19.64 17 21 C16.01 21.495 16.01 21.495 15 22 C14.01 21.67 13.02 21.34 12 21 C5.08095296 20.21755526 0.56255576 20.6974754 -5.11328125 24.75 C-10.4547907 28.28888825 -16.52678625 28.42258688 -22.72265625 27.6015625 C-26.33452519 26.64748391 -27.95555725 25.06666412 -30 22 C-30.65127201 17.84814095 -30.26066714 16.36873733 -27.8046875 12.89453125 C-26.8434919 11.85279591 -25.86630078 10.82562994 -24.875 9.8125 C-24.400625 9.29236328 -23.92625 8.77222656 -23.4375 8.23632812 C-20.28604418 4.90174717 -17.26882992 2.84307048 -13 1 C-19.10233569 2.61898702 -22.23191002 5.75549993 -26.6328125 10.1015625 C-29 12 -29 12 -33 12 C-32.39604862 6.32681738 -29.5376504 4.25510608 -25.33203125 0.73828125 C-17.37340271 -5.1940298 -8.54832277 -3.73017721 0 0 Z " fill="#403E35" transform="translate(91,41)"/>
<path d="M0 0 C0.99 0 1.98 0 3 0 C3.61875 0.639375 4.2375 1.27875 4.875 1.9375 C7.33352508 4.32371552 8.72260229 4.39626884 12 5 C12.99 6.485 12.99 6.485 14 8 C13.34 8 12.68 8 12 8 C12.33 9.32 12.66 10.64 13 12 C12.236875 12.12375 11.47375 12.2475 10.6875 12.375 C7.79732864 12.88102792 7.79732864 12.88102792 5 15 C6.0725 14.9175 7.145 14.835 8.25 14.75 C12 15 12 15 14.4375 17 C15.2109375 17.99 15.2109375 17.99 16 19 C14.02 19.66 12.04 20.32 10 21 C10.33 21.66 10.66 22.32 11 23 C12.97536745 22.65213292 12.97536745 22.65213292 15 22 C15.33 21.34 15.66 20.68 16 20 C16.66 20.33 17.32 20.66 18 21 C17.34 23.31 16.68 25.62 16 28 C14.35 28.33 12.7 28.66 11 29 C11.33 27.68 11.66 26.36 12 25 C10.845 25.33 9.69 25.66 8.5 26 C4.10366569 27.06601381 0.52239881 27.5189638 -4 27 C-6.9375 24.5625 -6.9375 24.5625 -9 22 C-9.33 21.67 -9.66 21.34 -10 21 C-10.14115161 18.32941149 -10.04247107 15.67567762 -10 13 C-9.34 13.66 -8.68 14.32 -8 15 C-7.01 14.67 -6.02 14.34 -5 14 C-4.67 12.02 -4.34 10.04 -4 8 C-2.35 8 -0.7 8 1 8 C1 6.68 1 5.36 1 4 C0.01 3.34 -0.98 2.68 -2 2 C-1.34 2 -0.68 2 0 2 C0 1.34 0 0.68 0 0 Z " fill="#ECE7D0" transform="translate(59,63)"/>
<path d="M0 0 C4.33344472 4.57419165 5.40032489 7.72305545 5.35546875 13.859375 C4.91603499 17.74184473 3.91180555 21.23730699 2.6875 24.9375 C2.36821533 25.9133606 2.36821533 25.9133606 2.04248047 26.90893555 C0.88592787 30.20420623 -0.09812041 32.92612339 -3 35 C-5.125 34.8125 -5.125 34.8125 -7 34 C-8.6059204 30.78815921 -8.76666226 27.46034047 -8 24 C-5 21.8125 -5 21.8125 -2 20 C-1.49758678 17.3295947 -1.49758678 17.3295947 -2 15 C-4.97 14.505 -4.97 14.505 -8 14 C-7.649375 14.5775 -7.29875 15.155 -6.9375 15.75 C-6 18 -6 18 -6.25 20.1875 C-7 22 -7 22 -9 23 C-9.867242 20.58732675 -10.71896936 18.17095531 -11.5625 15.75 C-11.80935547 15.06808594 -12.05621094 14.38617188 -12.31054688 13.68359375 C-13.27225926 10.89327331 -14.04571962 8.55401419 -13.80078125 5.5859375 C-12.54551141 3.09989089 -10.5564106 2.85213687 -8 2 C-4.75846834 -0.1610211 -3.76307099 -0.64247553 0 0 Z " fill="#DBD9D0" transform="translate(128,55)"/>
<path d="M0 0 C1 3 1 3 2 6 C2.53625 6.78375 3.0725 7.5675 3.625 8.375 C5 11 5 11 4.6875 13.8125 C4.460625 14.534375 4.23375 15.25625 4 16 C4.556875 15.855625 5.11375 15.71125 5.6875 15.5625 C7.25969768 15.18007354 8.84490917 14.84834964 10.4375 14.5625 C13.11385371 13.97500772 15.48544067 13.07766829 18 12 C18.99 12.99 19.98 13.98 21 15 C19.35 15.66 17.7 16.32 16 17 C15.91773332 20.04386724 16.02391783 22.07175348 17 25 C15.68 25 14.36 25 13 25 C12.34 23.02 11.68 21.04 11 19 C10.01 19 9.02 19 8 19 C6.71179492 20.78217453 6.71179492 20.78217453 5.625 23 C4.33984375 25.21875 4.33984375 25.21875 3 27 C0.1875 27.5 0.1875 27.5 -2 27 C-3.1875 25.375 -3.1875 25.375 -4 23 C-2.625 19.75 -2.625 19.75 -1 17 C-0.34 17 0.32 17 1 17 C0.01 16.01 -0.98 15.02 -2 14 C-2.44730469 14.51691406 -2.89460938 15.03382812 -3.35546875 15.56640625 C-5.16093508 17.53355613 -6.9028487 19.34481034 -9 21 C-11.9375 20.9375 -11.9375 20.9375 -14 20 C-15.4599386 15.6201842 -15.74160941 11.19736122 -14.26171875 6.8125 C-13 5 -13 5 -10.9765625 4.27734375 C-10.20054688 4.16519531 -9.42453125 4.05304688 -8.625 3.9375 C-5.02335478 3.29372767 -2.71585309 2.59777252 0 0 Z " fill="#CFCFC4" transform="translate(47,79)"/>
<path d="M0 0 C0.33 0 0.66 0 1 0 C1.02578125 0.6290625 1.0515625 1.258125 1.078125 1.90625 C1.43869238 7.34753959 2.22389138 11.28891061 5.16015625 15.91796875 C7.48052034 21.67031322 5.56299532 27.51637704 3.75 33.125 C3.54503906 33.81464844 3.34007812 34.50429687 3.12890625 35.21484375 C1.77727068 39.49911893 0.24714802 42.7590965 -3 46 C-6.25 46.3125 -6.25 46.3125 -9 46 C-9.0928125 47.918125 -9.0928125 47.918125 -9.1875 49.875 C-11.15554499 67.28673135 -29.30405779 84.13171393 -42.01171875 94.66796875 C-45.14090153 96.98261371 -48.23457743 98.95404929 -52 100 C-52.99 99.67 -53.98 99.34 -55 99 C-54.34 99 -53.68 99 -53 99 C-53.33 97.68 -53.66 96.36 -54 95 C-53.195625 95.144375 -52.39125 95.28875 -51.5625 95.4375 C-41.04923262 94.14639699 -30.78739687 80.61557268 -24 73 C-21.30846007 69.4785686 -19.10103253 65.89503738 -17 62 C-16.49855469 61.21753906 -15.99710938 60.43507812 -15.48046875 59.62890625 C-11.16409768 52.38739115 -10.92787811 45.25533859 -12 37 C-12.99304409 33.11010445 -14.39453472 29.44676883 -15.90625 25.73046875 C-17 23 -17 23 -17 21 C-16.34 21 -15.68 21 -15 21 C-14.505 19.515 -14.505 19.515 -14 18 C-11.525 24.93 -11.525 24.93 -9 32 C-8.07461831 28.29847322 -7.91825838 27.36541838 -9 24 C-7.00045254 23.95745644 -4.99958364 23.95919217 -3 24 C-2 25 -2 25 -1.625 27.3125 C-2 30 -2 30 -4.375 32.3125 C-7 34 -7 34 -9 34 C-8.505 38.95 -8.505 38.95 -8 44 C-5.55820978 43.8667927 -5.55820978 43.8667927 -3 43 C-1.59543353 40.920524 -1.59543353 40.920524 -0.8125 38.3125 C-0.49410156 37.40113281 -0.17570312 36.48976562 0.15234375 35.55078125 C0.43207031 34.70902344 0.71179688 33.86726563 1 33 C1.4125 32.01 1.825 31.02 2.25 30 C3.32602163 25.69591349 3.64856777 21.40049743 3 17 C2.50242188 16.20335938 2.00484375 15.40671875 1.4921875 14.5859375 C-0.34993668 11.39356522 -0.30794164 9.34089646 -0.1875 5.6875 C-0.14689453 4.08455078 -0.14689453 4.08455078 -0.10546875 2.44921875 C-0.07066406 1.64097656 -0.03585938 0.83273438 0 0 Z " fill="#3F3C34" transform="translate(129,45)"/>
<path d="M0 0 C2.31284456 0.14026283 4.62527591 0.28735558 6.9375 0.4375 C8.86916016 0.55931641 8.86916016 0.55931641 10.83984375 0.68359375 C14 1 14 1 15 2 C15.27416026 3.64198158 15.51878303 5.28892302 15.75 6.9375 C16.64438318 12.20748089 18.39879215 16.34752918 20.9765625 21.00390625 C22 23 22 23 22 25 C18.84550777 25.55203614 16.75429075 25.48939102 14.03125 23.72265625 C8.21938018 18.79374358 2.03995058 12.54781714 0 5 C-0.02461573 3.33351512 -0.02763578 1.66643753 0 0 Z " fill="#EDE9D2" transform="translate(47,118)"/>
<path d="M0 0 C0.99 0.33 1.98 0.66 3 1 C3.495 2.485 3.495 2.485 4 4 C-3.77458744 11.42905022 -15.11937255 17.5175126 -26.0625 18.1875 C-26.701875 18.125625 -27.34125 18.06375 -28 18 C-28 16.68 -28 15.36 -28 14 C-28.66 13.34 -29.32 12.68 -30 12 C-30.1875 9.4375 -30.1875 9.4375 -30 7 C-28.44903111 5.44903111 -26.92958151 5.83711396 -24.7734375 5.7890625 C-23.90589844 5.76070313 -23.03835937 5.73234375 -22.14453125 5.703125 C-20.32180215 5.6517081 -18.49886127 5.607249 -16.67578125 5.5703125 C-10.26651982 5.34377012 -4.74566673 4.74566673 0 0 Z " fill="#060605" transform="translate(92,89)"/>
<path d="M0 0 C0.66837891 0.03609375 1.33675781 0.0721875 2.02539062 0.109375 C5.98893914 0.4079178 8.88946196 0.80135161 11.5625 3.875 C11.734375 6.13671875 11.734375 6.13671875 11.3125 8.5625 C11.18359375 9.37074219 11.0546875 10.17898437 10.921875 11.01171875 C10.80328125 11.62660156 10.6846875 12.24148437 10.5625 12.875 C9.9025 12.545 9.2425 12.215 8.5625 11.875 C3.2242321 10.09557737 -0.86057803 10.1991763 -5.9375 12.375 C-6.7625 12.87 -7.5875 13.365 -8.4375 13.875 C-10.41694936 10.90582597 -10.73100581 10.21797721 -10.75 6.875 C-10.76675781 6.194375 -10.78351562 5.51375 -10.80078125 4.8125 C-10.4375 2.875 -10.4375 2.875 -9.3828125 1.1171875 C-6.37253913 -0.80503526 -3.41510778 -0.30123674 0 0 Z " fill="#F4F2E0" transform="translate(38.4375,59.125)"/>
<path d="M0 0 C2.58148508 0.35606691 3.82045747 0.83328193 5.75 2.625 C7.78697101 6.49524492 7.3613487 10.23842507 6.5 14.4375 C6.335 14.953125 6.17 15.46875 6 16 C6.66 16 7.32 16 8 16 C7.49289581 20.36109605 6.63658349 23.45075299 4 27 C3.01 27.33 2.02 27.66 1 28 C-0.5 27 -0.5 27 -2 25 C-2.73978495 19.82150538 -2.73978495 19.82150538 -2 17 C1 14.8125 1 14.8125 4 13 C4.50241322 10.3295947 4.50241322 10.3295947 4 8 C1.03 7.505 1.03 7.505 -2 7 C-1.649375 7.5775 -1.29875 8.155 -0.9375 8.75 C0 11 0 11 -0.25 13.1875 C-1 15 -1 15 -3 16 C-4.31626692 12.38026598 -5 9.90432869 -5 6 C-4.360625 5.7525 -3.72125 5.505 -3.0625 5.25 C-0.81258459 4.18437567 -0.81258459 4.18437567 -0.25 1.875 C-0.1675 1.25625 -0.085 0.6375 0 0 Z " fill="#EAE8DC" transform="translate(122,62)"/>
<path d="M0 0 C0.33 0 0.66 0 1 0 C2.52817816 7.80699712 1.61307221 12.96169114 -2 20 C-2.39058594 20.79019531 -2.78117187 21.58039063 -3.18359375 22.39453125 C-7.50922124 30.33982329 -13.74596986 36.56604241 -20 43 C-21.25296875 44.31291016 -21.25296875 44.31291016 -22.53125 45.65234375 C-33.46842555 56.90789599 -33.46842555 56.90789599 -41 59 C-41.99 58.67 -42.98 58.34 -44 58 C-43.34 58 -42.68 58 -42 58 C-42.33 56.68 -42.66 55.36 -43 54 C-42.195625 54.144375 -41.39125 54.28875 -40.5625 54.4375 C-30.04923262 53.14639699 -19.78739687 39.61557268 -13 32 C-10.3095512 28.47999615 -8.08603436 24.90232289 -6 21 C-5.26523438 19.75669922 -5.26523438 19.75669922 -4.515625 18.48828125 C-1.10803252 12.39098796 -0.14539121 6.95234308 0 0 Z " fill="#4E4A40" transform="translate(118,86)"/>
<path d="M0 0 C0.85464844 0.00386719 1.70929687 0.00773437 2.58984375 0.01171875 C5.16278192 0.32469859 6.83755475 1.01676622 9.0625 2.3125 C7.7096989 6.73984904 5.99935614 8.86290063 2.0625 11.3125 C-1.75 12.0625 -1.75 12.0625 -4.9375 12.3125 C-6.91288528 10.09019156 -7.87706032 8.72550448 -8.3125 5.75 C-7.54575568 0.76616195 -4.66997905 -0.09129282 0 0 Z " fill="#D2D1C9" transform="translate(39.9375,70.6875)"/>
<path d="M0 0 C-2.49962069 4.6867888 -4.5371912 6.89706464 -9.62890625 8.54296875 C-14.06525825 9.39808108 -18.50556257 9.2230695 -23 9 C-23 8.34 -23 7.68 -23 7 C-21.55367188 6.81824219 -21.55367188 6.81824219 -20.078125 6.6328125 C-18.18320313 6.38144531 -18.18320313 6.38144531 -16.25 6.125 C-14.99703125 5.96257813 -13.7440625 5.80015625 -12.453125 5.6328125 C-9.51383592 5.0941645 -7.52892853 4.51991159 -5 3 C-5 2.34 -5 1.68 -5 1 C-8.74913246 -0.24971082 -12.12372303 -0.78948026 -16 0 C-18.06047859 1.39949338 -19.72040793 2.90550172 -21.45703125 4.6875 C-23 6 -23 6 -26 6 C-25.25 -0.75 -25.25 -0.75 -23 -3 C-14.48587 -5.1285325 -7.24606245 -5.0407391 0 0 Z " fill="#DEDDD4" transform="translate(91,58)"/>
<path d="M0 0 C2.3828125 -0.29296875 2.3828125 -0.29296875 5.125 -0.1875 C6.03507812 -0.16042969 6.94515625 -0.13335937 7.8828125 -0.10546875 C8.58148438 -0.07066406 9.28015625 -0.03585938 10 0 C9.45276317 3.37462715 8.9451 5.08235 7 8 C7.66 8 8.32 8 9 8 C7.72431911 10.84574968 6.58503711 13.18089981 4 15 C1.3125 14.6875 1.3125 14.6875 -1 14 C-1.8814688 11.35559361 -2.16174818 9.71939248 -2.1875 7 C-2.20167969 6.319375 -2.21585938 5.63875 -2.23046875 4.9375 C-2 3 -2 3 0 0 Z " fill="#F4EFD8" transform="translate(34,85)"/>
<path d="M0 0 C5.58789188 0.23844437 10.49374311 3.74374311 14.375 7.625 C14.47419077 9.22663916 14.50469898 10.83279918 14.5 12.4375 C14.50386719 13.74654297 14.50386719 13.74654297 14.5078125 15.08203125 C14.38536388 17.42656227 13.95616907 19.36438958 13.375 21.625 C13.31008779 22.97777041 13.28901809 24.33337667 13.3125 25.6875 C13.34920322 27.99980256 13.375 30.31240616 13.375 32.625 C12.385 32.625 11.395 32.625 10.375 32.625 C10.375 30.315 10.375 28.005 10.375 25.625 C8.951875 26.615 8.951875 26.615 7.5 27.625 C4.375 29.625 4.375 29.625 2.375 29.625 C2.375 28.965 2.375 28.305 2.375 27.625 C3.2825 27.25375 4.19 26.8825 5.125 26.5 C8.82612176 24.36473745 10.26153657 22.28291748 12.375 18.625 C8.745 17.965 5.115 17.305 1.375 16.625 C1.375 16.295 1.375 15.965 1.375 15.625 C6.79038462 14.39423077 6.79038462 14.39423077 9.75 15.5625 C10.28625 15.913125 10.8225 16.26375 11.375 16.625 C11.705 13.985 12.035 11.345 12.375 8.625 C8.38578152 6.81171887 4.71443969 6.14872548 0.375 5.625 C-1.95833333 5.29166667 -4.29166667 4.95833333 -6.625 4.625 C-4.8734391 1.1218782 -3.9332859 0.67815274 0 0 Z " fill="#4F4C40" transform="translate(36.625,54.375)"/>
<path d="M0 0 C-3.26034047 1.08678016 -5.22522725 0.91151603 -8.625 0.6875 C-17.08464294 0.61598128 -21.74599934 4.68052383 -27.5625 10.375 C-28.366875 11.24125 -29.17125 12.1075 -30 13 C-30.99 12.67 -31.98 12.34 -33 12 C-32.39604862 6.32681738 -29.5376504 4.25510608 -25.33203125 0.73828125 C-17.37340271 -5.1940298 -8.54832277 -3.73017721 0 0 Z " fill="#121210" transform="translate(91,41)"/>
<path d="M0 0 C0.66 0 1.32 0 2 0 C2 0.66 2 1.32 2 2 C2.99 1.67 3.98 1.34 5 1 C5.83878455 2.28813342 6.67086783 3.58063256 7.5 4.875 C7.9640625 5.59429687 8.428125 6.31359375 8.90625 7.0546875 C10 9 10 9 10 11 C10.66 11 11.32 11 12 11 C11.9175 11.99 11.835 12.98 11.75 14 C11.84228643 23.21018526 18.82354396 29.88316226 25 36 C27.95664519 37.4783226 30.74229737 37.06032783 34 37 C34 37.66 34 38.32 34 39 C30.8125 40.25 30.8125 40.25 27 41 C24.5 39.625 24.5 39.625 22 37 C21.47792969 36.50757813 20.95585938 36.01515625 20.41796875 35.5078125 C12.94219588 27.9139123 8.09987025 17.10211524 5 7 C4.34 7 3.68 7 3 7 C2.01 4.69 1.02 2.38 0 0 Z " fill="#555143" transform="translate(36,105)"/>
<path d="M0 0 C4.95 0 9.9 0 15 0 C13.81927711 4.72289157 13.81927711 4.72289157 11 7 C7.43954823 8.18681726 4.56191663 8.09689832 0.8125 8.0625 C-0.45980469 8.05347656 -1.73210937 8.04445313 -3.04296875 8.03515625 C-4.50669922 8.01775391 -4.50669922 8.01775391 -6 8 C-5.071875 7.4121875 -5.071875 7.4121875 -4.125 6.8125 C-1.49001224 4.84975662 -1.49001224 4.84975662 0 0 Z " fill="#F7F5E3" transform="translate(78,86)"/>
<path d="M0 0 C2 1 2 1 2.76953125 2.8984375 C4.51734496 5.88359235 6.50055438 6.38541011 9.6875 7.625 C10.75871094 8.04394531 11.82992187 8.46289062 12.93359375 8.89453125 C16.26899672 10.09697589 19.5618024 11.1404506 23 12 C22.01 12.495 22.01 12.495 21 13 C21 13.99 21 14.98 21 16 C16.23692563 16.95261487 11.8333472 17.08333357 7 17 C7 16.67 7 16.34 7 16 C10.465 15.505 10.465 15.505 14 15 C11.81426296 13.54284197 9.73327639 12.2774627 7.42578125 11.0546875 C6.75869141 10.70019531 6.09160156 10.34570312 5.40429688 9.98046875 C4.71400391 9.61566406 4.02371094 9.25085937 3.3125 8.875 C2.61060547 8.50246094 1.90871094 8.12992188 1.18554688 7.74609375 C-0.54222117 6.82931887 -2.27101153 5.91447114 -4 5 C-4 4.01 -4 3.02 -4 2 C-2.125 0.9375 -2.125 0.9375 0 0 Z " fill="#EDECE3" transform="translate(51,8)"/>
<path d="M0 0 C2.5 1 2.5 1 4 2 C3.67 2.99 3.34 3.98 3 5 C-2.82544138 7.80869495 -7.58939027 8.40066311 -14 8 C-13.41385929 5.06312654 -13.03928669 4.04285821 -10.9375 1.75 C-6.88393755 -0.66488827 -4.68571132 -0.44625822 0 0 Z " fill="#141410" transform="translate(83,57)"/>
<path d="M0 0 C0 0.33 0 0.66 0 1 C-1.175625 1.0928125 -1.175625 1.0928125 -2.375 1.1875 C-3.24125 1.455625 -4.1075 1.72375 -5 2 C-6.37466625 4.47636012 -6.37466625 4.47636012 -7 7 C-4.03 7.495 -4.03 7.495 -1 8 C-1 8.33 -1 8.66 -1 9 C-1.96099609 9.03867187 -1.96099609 9.03867187 -2.94140625 9.078125 C-9.04208981 9.47816982 -13.08018736 10.28503943 -18 14 C-19.96183059 17.08380786 -19.96183059 17.08380786 -21 20 C-21.33 20 -21.66 20 -22 20 C-22.37264192 16.24618069 -22.33822001 14.49359886 -20.171875 11.33203125 C-19.37265625 10.50058594 -18.5734375 9.66914062 -17.75 8.8125 C-16.56664063 7.55373047 -16.56664063 7.55373047 -15.359375 6.26953125 C-10.33388664 1.43541083 -7.05816165 -0.15684804 0 0 Z " fill="#F0EDDC" transform="translate(85,43)"/>
<path d="M0 0 C2.33333333 2.33333333 4.66666667 4.66666667 7 7 C4.03 6.505 4.03 6.505 1 6 C0.34 8.31 -0.32 10.62 -1 13 C0.32 13.99 1.64 14.98 3 16 C0.625 16.625 0.625 16.625 -2 17 C-2.66 16.34 -3.32 15.68 -4 15 C-4.99 15.33 -5.98 15.66 -7 16 C-7 15.34 -7 14.68 -7 14 C-7.66 14 -8.32 14 -9 14 C-10.625 12 -10.625 12 -12 10 C-11.67 9.34 -11.34 8.68 -11 8 C-10.278125 7.938125 -9.55625 7.87625 -8.8125 7.8125 C-4.55268358 6.58188637 -2.61516675 3.44195486 0 0 Z " fill="#292620" transform="translate(45,91)"/>
<path d="M0 0 C1 3 1 3 2 6 C2.53625 6.763125 3.0725 7.52625 3.625 8.3125 C5.34209011 11.66863067 4.91625715 13.4182675 4 17 C1.13275314 16.42655063 0.1385485 16.1385485 -2 14 C-2.99 14.495 -2.99 14.495 -4 15 C-4.66 14.67 -5.32 14.34 -6 14 C-4.125 8.25 -4.125 8.25 -3 6 C-6.3 6 -9.6 6 -13 6 C-13 5.67 -13 5.34 -13 5 C-12.09507813 4.83564453 -12.09507813 4.83564453 -11.171875 4.66796875 C-5.06315013 3.49202872 -5.06315013 3.49202872 0 0 Z " fill="#E7E4D2" transform="translate(47,79)"/>
<path d="M0 0 C0 0.66 0 1.32 0 2 C-1.32 2.33 -2.64 2.66 -4 3 C-4 3.99 -4 4.98 -4 6 C-4.60328125 6.03738281 -5.2065625 6.07476562 -5.828125 6.11328125 C-11.99367772 6.56253341 -11.99367772 6.56253341 -17 10 C-16.51896922 2.6642806 -16.51896922 2.6642806 -14.4375 0 C-9.85788475 -1.87881651 -4.67579651 -1.55859884 0 0 Z " fill="#AFAC9D" transform="translate(44,49)"/>
<path d="M0 0 C2.0245738 1.93254772 3.42105792 3.63158688 5 6 C9.34184202 5.81535634 9.34184202 5.81535634 13 4 C14.68608966 3.92794489 16.37500659 3.91613932 18.0625 3.9375 C18.98160156 3.94652344 19.90070312 3.95554687 20.84765625 3.96484375 C21.55792969 3.97644531 22.26820312 3.98804687 23 4 C21 6 21 6 17.875 6.125 C16.92625 6.08375 15.9775 6.0425 15 6 C15 6.66 15 7.32 15 8 C15.99 8.33 16.98 8.66 18 9 C18 9.99 18 10.98 18 12 C7.95883777 12.62324455 7.95883777 12.62324455 4.5 10.375 C0 3.25 0 3.25 0 0 Z " fill="#DAD7C8" transform="translate(41,105)"/>
<path d="M0 0 C2.3125 0.875 2.3125 0.875 4.3125 2.875 C4.54296875 5.51953125 4.54296875 5.51953125 4.5 8.6875 C4.49033203 10.24404297 4.49033203 10.24404297 4.48046875 11.83203125 C4.32679286 14.61606653 3.93912052 17.16298637 3.3125 19.875 C2.6525 19.875 1.9925 19.875 1.3125 19.875 C1.34730469 19.12734375 1.38210937 18.3796875 1.41796875 17.609375 C1.44503906 16.62453125 1.47210938 15.6396875 1.5 14.625 C1.53480469 13.65046875 1.56960937 12.6759375 1.60546875 11.671875 C1.26769178 8.44723082 0.56779239 7.16709203 -1.6875 4.875 C-2.6775 4.545 -3.6675 4.215 -4.6875 3.875 C-5.0175 5.525 -5.3475 7.175 -5.6875 8.875 C-7.0075 8.875 -8.3275 8.875 -9.6875 8.875 C-8.1775911 3.93347996 -5.6467151 -0.26263791 0 0 Z " fill="#191815" transform="translate(126.6875,58.125)"/>
<path d="M0 0 C1 3 1 3 1 6 C2.32 6 3.64 6 5 6 C4.67 5.34 4.34 4.68 4 4 C4.99 4 5.98 4 7 4 C7.65795898 5.81152344 7.65795898 5.81152344 8 8 C6.08065216 10.29016466 4.23652142 12.23281698 2.0625 14.25 C1.1972168 15.08144531 1.1972168 15.08144531 0.31445312 15.9296875 C-1.11277729 17.29794145 -2.55502058 18.6505038 -4 20 C-4.99 19.67 -5.98 19.34 -7 19 C-7.33 18.01 -7.66 17.02 -8 16 C-7 15 -7 15 -4.4375 14.9375 C-3.633125 14.958125 -2.82875 14.97875 -2 15 C-2 14.01 -2 13.02 -2 12 C-1.34 11.34 -0.68 10.68 0 10 C-0.99 9.34 -1.98 8.68 -3 8 C-3.33 8.66 -3.66 9.32 -4 10 C-3.29445932 6.33118845 -1.72264494 3.29549466 0 0 Z " fill="#E3DFCC" transform="translate(91,117)"/>
<path d="M0 0 C0.66 0.495 1.32 0.99 2 1.5 C6.01034059 3.50517029 8.54328182 3.29224382 13 3 C13.66 2.67 14.32 2.34 15 2 C16.99960012 1.960008 19.00047242 1.95653201 21 2 C21 2.99 21 3.98 21 5 C20.34 5 19.68 5 19 5 C19 5.66 19 6.32 19 7 C18.0925 6.773125 17.185 6.54625 16.25 6.3125 C13.03988849 5.63122403 13.03988849 5.63122403 11.125 7.4375 C7.8432228 9.85057147 5.00438629 9.20021931 1 9 C0.67 6.03 0.34 3.06 0 0 Z " fill="#17130F" transform="translate(50,86)"/>
<path d="M0 0 C2.41926039 0.06018061 4.83248672 0.14722217 7.25 0.25 C7.93191406 0.26417969 8.61382812 0.27835938 9.31640625 0.29296875 C12.87112206 0.46552777 14.70213559 0.7545897 17.484375 3.046875 C18.23460937 4.01367188 18.23460937 4.01367188 19 5 C17.8125 6.5625 17.8125 6.5625 16 8 C13.26194985 7.78383815 11.15061463 7.06341669 8.625 6 C5.44382947 4.78812551 2.37075774 4.39655973 -1 4 C-0.67 2.68 -0.34 1.36 0 0 Z " fill="#BEBDAE" transform="translate(31,59)"/>
<path d="M0 0 C2.22687699 0.89974828 4.20761594 1.96597177 6.28515625 3.1640625 C8.1035785 4.21251229 8.1035785 4.21251229 10.8125 3.9375 C13.12803973 2.94512583 14.40404614 1.93194414 16 0 C15.42655063 2.86724686 15.1385485 3.8614515 13 6 C13.33 6.66 13.66 7.32 14 8 C9.38250432 8.48098913 7.15048323 8.34688779 3.4375 5.5 C-2.11189378 1.59894101 -8.50927932 2.58977187 -15 3 C-10.39329991 -1.05777087 -5.88342066 -0.78228308 0 0 Z " fill="#3F3D30" transform="translate(85,52)"/>
<path d="M0 0 C0.66 0 1.32 0 2 0 C2.33 0.99 2.66 1.98 3 3 C3.66 2.67 4.32 2.34 5 2 C5.33 2.99 5.66 3.98 6 5 C4.41796875 7.6640625 4.41796875 7.6640625 2.1875 10.625 C1.45917969 11.60726562 0.73085937 12.58953125 -0.01953125 13.6015625 C-2 16 -2 16 -4 17 C-4.33 16.01 -4.66 15.02 -5 14 C-4.67 13.34 -4.34 12.68 -4 12 C-3.34 12 -2.68 12 -2 12 C-2 11.34 -2 10.68 -2 10 C-2.66 9.67 -3.32 9.34 -4 9 C-2.25 4.125 -2.25 4.125 0 3 C0 2.01 0 1.02 0 0 Z " fill="#E9E5CC" transform="translate(106,104)"/>
<path d="M0 0 C1.76227952 2.64341928 3.19871008 5.23077235 4.625 8.0625 C5.07101563 8.94035156 5.51703125 9.81820312 5.9765625 10.72265625 C7 13 7 13 7 15 C1.58461538 15.36923077 1.58461538 15.36923077 -1.375 13.5 C-1.91125 13.005 -2.4475 12.51 -3 12 C-2.25749403 7.91621717 -1.17076699 3.98060777 0 0 Z " fill="#E5E1CD" transform="translate(62,128)"/>
<path d="M0 0 C1.8871875 0.061875 1.8871875 0.061875 3.8125 0.125 C3.8125 1.445 3.8125 2.765 3.8125 4.125 C-2.6875 8.125 -2.6875 8.125 -7.1875 8.125 C-7.375 5.25 -7.375 5.25 -7.1875 2.125 C-4.09861478 0.06574319 -3.47814073 -0.1140374 0 0 Z " fill="#0D0C0A" transform="translate(42.1875,72.875)"/>
<path d="M0 0 C0 1.32 0 2.64 0 4 C-4.77573323 6.61895048 -8.84434881 5.83119431 -14 5 C-12.203125 1.1640625 -12.203125 1.1640625 -10.375 -0.3125 C-6.74055199 -1.36457706 -3.71572005 -0.61928668 0 0 Z " fill="#E8E5D1" transform="translate(81,105)"/>
<path d="M0 0 C2.475 0.99 2.475 0.99 5 2 C3 10.15384615 3 10.15384615 0 12 C-2.1875 11.6875 -2.1875 11.6875 -4 11 C-4.36630156 7.06225823 -4.30233203 5.43460229 -2 2.125 C-1.34 1.42375 -0.68 0.7225 0 0 Z " fill="#EFEBD8" transform="translate(125,78)"/>
<path d="M0 0 C2.9375 0.75 2.9375 0.75 6 2 C7.0625 3.875 7.0625 3.875 7 6 C5.875 8.25 5.875 8.25 4 10 C1.3125 10.25 1.3125 10.25 -1 10 C-2.1875 8.375 -2.1875 8.375 -3 6 C-1.625 2.75 -1.625 2.75 0 0 Z " fill="#E9E7D4" transform="translate(46,96)"/>
<path d="M0 0 C0.33 0 0.66 0 1 0 C2.13764351 4.26616316 3 7.56486311 3 12 C3.99 11.01 4.98 10.02 6 9 C6.66 9.33 7.32 9.66 8 10 C7.34 10.825 6.68 11.65 6 12.5 C3.37664958 16.42572297 3.55048293 19.35499028 4 24 C4.86265968 26.40557853 4.86265968 26.40557853 6 28 C5.34 28.99 4.68 29.98 4 31 C0.08473793 20.58392544 -0.15397954 11.06941792 0 0 Z " fill="#5A564B" transform="translate(25,46)"/>
<path d="M0 0 C3.71856737 0.17152064 6.11273386 1.17830039 9.125 3.4375 C8.135 4.9225 8.135 4.9225 7.125 6.4375 C2.45833333 5.77083333 -2.20833333 5.10416667 -6.875 4.4375 C-5.03884078 0.76518156 -4.18669455 0.47269132 0 0 Z " fill="#221E1B" transform="translate(36.875,54.5625)"/>
<path d="M0 0 C5.28 0 10.56 0 16 0 C16 0.33 16 0.66 16 1 C11.38 1.33 6.76 1.66 2 2 C1.34 3.98 0.68 5.96 0 8 C-0.99 8.495 -0.99 8.495 -2 9 C0.97 9.33 3.94 9.66 7 10 C7 10.33 7 10.66 7 11 C1.06 11 -4.88 11 -11 11 C-6 7 -6 7 -3.1875 6.75 C-2.465625 6.8325 -1.74375 6.915 -1 7 C-0.67 4.69 -0.34 2.38 0 0 Z " fill="#4A463C" transform="translate(76,84)"/>
<path d="M0 0 C0.99 0.33 1.98 0.66 3 1 C-8.22647251 12.84068681 -8.22647251 12.84068681 -16 15 C-16.99 14.67 -17.98 14.34 -19 14 C-18.34 14 -17.68 14 -17 14 C-17.33 12.68 -17.66 11.36 -18 10 C-17.195625 10.144375 -16.39125 10.28875 -15.5625 10.4375 C-9.10997777 9.64508499 -4.40954672 4.54953233 0 0 Z " fill="#4E493C" transform="translate(93,130)"/>
<path d="M0 0 C0.99 0.33 1.98 0.66 3 1 C3.33 1.99 3.66 2.98 4 4 C2.90081184 4.98475214 1.7954398 5.96260473 0.6875 6.9375 C-0.23482422 7.75541016 -0.23482422 7.75541016 -1.17578125 8.58984375 C-3 10 -3 10 -6 11 C-6 8.66666667 -6 6.33333333 -6 4 C-3.5625 2.3125 -3.5625 2.3125 -1 1 C-0.67 0.67 -0.34 0.34 0 0 Z " fill="#12110E" transform="translate(92,89)"/>
<path d="M0 0 C2 3 2 3 1.8203125 5.13671875 C-0.60059864 14.01792647 -4.72067295 21.89875616 -9 30 C-9.33 29.34 -9.66 28.68 -10 28 C-9.17321514 25.67598291 -8.28614696 23.44930047 -7.3125 21.1875 C-4.41231559 14.23162862 -2.07832543 7.24968813 0 0 Z " fill="#3B372B" transform="translate(102,87)"/>
<path d="M0 0 C0.66 0 1.32 0 2 0 C3.125 3.75 3.125 3.75 2 6 C1.4852961 11.16391457 0.98281131 16.2416778 4 20.6875 C4.66 21.450625 5.32 22.21375 6 23 C5.67 23.66 5.34 24.32 5 25 C-0.89321235 19.40900366 -0.89321235 19.40900366 -1.1328125 14.00390625 C-1.12894531 12.30041016 -1.12894531 12.30041016 -1.125 10.5625 C-1.12886719 8.86287109 -1.12886719 8.86287109 -1.1328125 7.12890625 C-1.02325193 4.54778817 -0.75864877 2.45055595 0 0 Z " fill="#DBD8C9" transform="translate(30,80)"/>
<path d="M0 0 C-4.07524236 1.35841412 -7.82465575 1.02206383 -12.08984375 0.9375 C-14.60969957 0.99161771 -16.60747431 1.26206437 -19 2 C-19.66 0.68 -20.32 -0.64 -21 -2 C-13.36361021 -4.13268544 -7.17563672 -3.13118693 0 0 Z " fill="#1E1F19" transform="translate(91,41)"/>
<path d="M0 0 C3.0625 0.25 3.0625 0.25 6 1 C6.33 1.66 6.66 2.32 7 3 C5.90398831 4.00893131 4.79786082 5.00688225 3.6875 6 C2.76517578 6.8353125 2.76517578 6.8353125 1.82421875 7.6875 C0 9 0 9 -3 9 C-2.25 2.25 -2.25 2.25 0 0 Z " fill="#CFCDC3" transform="translate(68,55)"/>
<path d="M0 0 C0.89203125 0.01804688 1.7840625 0.03609375 2.703125 0.0546875 C3.71632813 0.08949219 3.71632813 0.08949219 4.75 0.125 C4.75 0.455 4.75 0.785 4.75 1.125 C4.04875 1.18816406 3.3475 1.25132813 2.625 1.31640625 C-5.02412095 2.30372485 -8.994669 4.58431166 -14.25 10.125 C-15.24933979 11.10484047 -16.24924338 12.08410665 -17.25 13.0625 C-17.91 13.743125 -18.57 14.42375 -19.25 15.125 C-18.78377427 10.59707891 -17.37386697 8.84519513 -13.9375 5.9375 C-13.15761719 5.26332031 -12.37773438 4.58914062 -11.57421875 3.89453125 C-7.57885179 0.85268044 -5.05210783 -0.13295021 0 0 Z " fill="#DBDCD7" transform="translate(81.25,40.875)"/>
<path d="M0 0 C2.25 -0.3125 2.25 -0.3125 5 0 C9.60402156 4.85980053 10.21480375 7.98208314 10.16796875 14.4453125 C9.96461007 17.53825614 9.20021201 20.14949648 8 23 C7.67 23 7.34 23 7 23 C7.04640625 21.81921875 7.0928125 20.6384375 7.140625 19.421875 C7.17814949 17.86460866 7.21454893 16.30731492 7.25 14.75 C7.28351563 13.97269531 7.31703125 13.19539063 7.3515625 12.39453125 C7.46114672 7.64106445 7.46114672 7.64106445 5.171875 3.578125 C3.47597253 2.34585055 1.74424922 1.16283281 0 0 Z " fill="#D7D6CB" transform="translate(123,55)"/>
<path d="M0 0 C-0.99043705 4.83628305 -1.95698846 9.47618873 -4 14 C-4.33 14 -4.66 14 -5 14 C-5.27599507 12.23303157 -5.51996915 10.46103785 -5.75 8.6875 C-5.88921875 7.70136719 -6.0284375 6.71523437 -6.171875 5.69921875 C-6 3 -6 3 -4.140625 1.14453125 C-2 0 -2 0 0 0 Z " fill="#EAE7D8" transform="translate(104,82)"/>
<path d="M0 0 C3.96 0 7.92 0 12 0 C10.92643531 4.29425875 10.4915227 4.74740471 7 7 C4.27227262 5.18151508 2.22756328 3.38118833 0 1 C0 0.67 0 0.34 0 0 Z " fill="#D7D5C4" transform="translate(81,86)"/>
<path d="M0 0 C1.74949772 2.62424658 2.65389981 4.55727216 3.625 7.5 C3.88539062 8.2734375 4.14578125 9.046875 4.4140625 9.84375 C5 12 5 12 5 15 C4.34 15 3.68 15 3 15 C2.67 15.66 2.34 16.32 2 17 C1.5196682 15.41701974 1.04078388 13.83360022 0.5625 12.25 C0.29566406 11.36828125 0.02882813 10.4865625 -0.24609375 9.578125 C-0.88468494 7.39434165 -1.46775833 5.21164502 -2 3 C-1.34 3 -0.68 3 0 3 C0 2.01 0 1.02 0 0 Z " fill="#2C2923" transform="translate(114,63)"/>
<path d="M0 0 C3.875 0.875 3.875 0.875 5 2 C5.04063832 3.66617115 5.042721 5.33388095 5 7 C6.98 6.67 8.96 6.34 11 6 C10.34 7.32 9.68 8.64 9 10 C9.66 10.33 10.32 10.66 11 11 C8.69 11.33 6.38 11.66 4 12 C4 10.68 4 9.36 4 8 C3.34964186 6.65863633 2.6837045 5.32467746 2 4 C2 3.01 2 2.02 2 1 C1.34 0.67 0.68 0.34 0 0 Z " fill="#171412" transform="translate(55,97)"/>
<path d="M0 0 C4 4.75 4 4.75 4 7 C3.01 7.33 2.02 7.66 1 8 C-1.125 3.375 -1.125 3.375 0 0 Z M-2 7 C-0.02 7.66 1.96 8.32 4 9 C3.01 9.66 2.02 10.32 1 11 C1.33 11.99 1.66 12.98 2 14 C0.68 14 -0.64 14 -2 14 C-2.33 12.68 -2.66 11.36 -3 10 C-2.34 10 -1.68 10 -1 10 C-1.33 9.01 -1.66 8.02 -2 7 Z " fill="#F1EBD7" transform="translate(101,37)"/>
<path d="M0 0 C3.18419421 1.37154686 4.97112596 2.86169983 7.125 5.5625 C9.20903634 8.21025666 9.20903634 8.21025666 12 10 C14.3329866 10.04022391 16.66706666 10.04320247 19 10 C19 10.66 19 11.32 19 12 C15.8125 13.25 15.8125 13.25 12 14 C7.22734472 11.3750396 3.26817299 6.35128508 0 2 C0 1.34 0 0.68 0 0 Z " fill="#605B4F" transform="translate(51,132)"/>
<path d="M0 0 C0.90105469 0.01804688 1.80210938 0.03609375 2.73046875 0.0546875 C3.41753906 0.07789063 4.10460938 0.10109375 4.8125 0.125 C1.33702927 2.07066951 -0.31256344 2.20137127 -4.1875 1.125 C-4.1875 1.785 -4.1875 2.445 -4.1875 3.125 C-3.1975 3.455 -2.2075 3.785 -1.1875 4.125 C-6.9375 8 -6.9375 8 -9.1875 9.125 C-8.875 5.75 -8.875 5.75 -8.1875 2.125 C-4.87379 -0.08414 -3.8428979 -0.09981553 0 0 Z " fill="#F3F2E5" transform="translate(36.1875,49.875)"/>
<path d="M0 0 C2.53731364 1.26865682 2.78646846 2.49709121 4 5 C4.66 5.66 5.32 6.32 6 7 C5.01 7.66 4.02 8.32 3 9 C0.36 7.35 -2.28 5.7 -5 4 C-3.73293765 1.46587529 -2.59334288 1.02161992 0 0 Z " fill="#EDECDF" transform="translate(51,8)"/>
<path d="M0 0 C0.66 0 1.32 0 2 0 C2.84454356 3.37817425 3.10844919 5.67465243 2 9 C2.66 9 3.32 9 4 9 C4 8.34 4 7.68 4 7 C4.99 7.33 5.98 7.66 7 8 C6.67 9.32 6.34 10.64 6 12 C4.35 11.67 2.7 11.34 1 11 C-0.28317892 7.15046324 -0.06643637 4.05261865 0 0 Z " fill="#E7E2D0" transform="translate(32,88)"/>
<path d="M0 0 C6.5484817 -1.10770337 12.21205334 -0.08690488 18 3 C17.01 3.495 17.01 3.495 16 4 C15.01 3.67 14.02 3.34 13 3 C5.90016296 2.3201098 1.63391109 2.6337189 -4 7 C-4.99 6.67 -5.98 6.34 -7 6 C-6.21625 5.566875 -5.4325 5.13375 -4.625 4.6875 C-1.78301625 3.10779753 -1.78301625 3.10779753 0 0 Z " fill="#4C493E" transform="translate(90,59)"/>
<path d="M0 0 C0 0.99 0 1.98 0 3 C-0.66 3 -1.32 3 -2 3 C-2 3.66 -2 4.32 -2 5 C-2.94875 4.814375 -3.8975 4.62875 -4.875 4.4375 C-7.89868793 3.71313368 -7.89868793 3.71313368 -10 5 C-10 4.34 -10 3.68 -10 3 C-11.32 2.67 -12.64 2.34 -14 2 C-9.15758367 0.66416101 -5.06562383 -0.25328119 0 0 Z " fill="#23201D" transform="translate(71,88)"/>
<path d="M0 0 C0.66 0 1.32 0 2 0 C2 0.66 2 1.32 2 2 C2.99 1.67 3.98 1.34 5 1 C6.65 3.97 8.3 6.94 10 10 C8.68 10.33 7.36 10.66 6 11 C5.67 9.68 5.34 8.36 5 7 C4.34 7 3.68 7 3 7 C2.01 4.69 1.02 2.38 0 0 Z " fill="#515049" transform="translate(36,105)"/>
<path d="M0 0 C0 0.66 0 1.32 0 2 C0.99 2 1.98 2 3 2 C2.67 3.65 2.34 5.3 2 7 C1.34 6.01 0.68 5.02 0 4 C-2.85534924 3.49038765 -2.85534924 3.49038765 -6.0625 3.4375 C-9.34765625 3.30859375 -9.34765625 3.30859375 -12 3 C-12.33 2.34 -12.66 1.68 -13 1 C-11.20843648 0.83222817 -9.4167455 0.66581706 -7.625 0.5 C-6.62726562 0.4071875 -5.62953125 0.314375 -4.6015625 0.21875 C-2 0 -2 0 0 0 Z " fill="#1A1410" transform="translate(61,116)"/>
<path d="M0 0 C2.49361571 1.20381448 4.68143083 2.45428722 7 4 C5.875 5.5 5.875 5.5 4 7 C0.8125 7.1875 0.8125 7.1875 -2 7 C-1.34 4.69 -0.68 2.38 0 0 Z " fill="#030107" transform="translate(55,102)"/>
<path d="M0 0 C0 1.65 0 3.3 0 5 C-0.99 4.34 -1.98 3.68 -3 3 C-3.99 3 -4.98 3 -6 3 C-6.33 3.66 -6.66 4.32 -7 5 C-7.66 5 -8.32 5 -9 5 C-9 4.01 -9 3.02 -9 2 C-9.66 1.67 -10.32 1.34 -11 1 C-6.8204355 -1.78637633 -4.85331323 -0.79562512 0 0 Z " fill="#DCD9CE" transform="translate(61,95)"/>
<path d="M0 0 C1.32 0.33 2.64 0.66 4 1 C3.67 1.99 3.34 2.98 3 4 C5.97 4.495 5.97 4.495 9 5 C9 5.33 9 5.66 9 6 C4.38 6 -0.24 6 -5 6 C-3.68 5.01 -2.36 4.02 -1 3 C-0.67 2.01 -0.34 1.02 0 0 Z " fill="#ECE9D9" transform="translate(77,88)"/>
<path d="M0 0 C0 1.32 0 2.64 0 4 C-2.97 4 -5.94 4 -9 4 C-8.67 2.68 -8.34 1.36 -8 0 C-4.71303767 -0.79953138 -3.28976808 -1.09658936 0 0 Z " fill="#0A0A06" transform="translate(78,61)"/>
<path d="M0 0 C0.36923077 5.53846154 0.36923077 5.53846154 -1.5 7.875 C-2.2425 8.431875 -2.2425 8.431875 -3 9 C-3.99 8.67 -4.98 8.34 -6 8 C-5.62403791 5.21788056 -5.32681541 3.4120716 -3.5625 1.1875 C-2 0 -2 0 0 0 Z " fill="#14120E" transform="translate(64,45)"/>
<path d="M0 0 C0.66 0.33 1.32 0.66 2 1 C2.484375 3.6171875 2.484375 3.6171875 2.75 6.875 C2.89695312 8.47988281 2.89695312 8.47988281 3.046875 10.1171875 C3 13 3 13 1 16 C0.01 16 -0.98 16 -2 16 C-1.34 14.02 -0.68 12.04 0 10 C-0.99 10 -1.98 10 -3 10 C-2.34 9.01 -1.68 8.02 -1 7 C-0.960008 5.00039988 -0.95653201 2.99952758 -1 1 C-0.67 0.67 -0.34 0.34 0 0 Z " fill="#D2D1BE" transform="translate(97,84)"/>
<path d="M0 0 C0.66 0.33 1.32 0.66 2 1 C1.34 3.31 0.68 5.62 0 8 C-1.65 8.33 -3.3 8.66 -5 9 C-4.67 7.68 -4.34 6.36 -4 5 C-5.65 5 -7.3 5 -9 5 C-9 4.67 -9 4.34 -9 4 C-8.43410156 3.87882812 -7.86820312 3.75765625 -7.28515625 3.6328125 C-6.18494141 3.38144531 -6.18494141 3.38144531 -5.0625 3.125 C-4.33160156 2.96257812 -3.60070312 2.80015625 -2.84765625 2.6328125 C-0.79299706 2.17038477 -0.79299706 2.17038477 0 0 Z " fill="#D5D2C4" transform="translate(75,83)"/>
<path d="M0 0 C0.33 0.99 0.66 1.98 1 3 C0.01 3.99 -0.98 4.98 -2 6 C-1.67 6.66 -1.34 7.32 -1 8 C-7.48292295 8.3669579 -7.48292295 8.3669579 -9.9375 6.625 C-11 5 -11 5 -11 3 C-8.36 3.33 -5.72 3.66 -3 4 C-2.01 2.68 -1.02 1.36 0 0 Z " fill="#242118" transform="translate(100,52)"/>
<path d="M0 0 C0.8353125 0.37125 0.8353125 0.37125 1.6875 0.75 C0.6975 0.75 -0.2925 0.75 -1.3125 0.75 C-1.3125 1.74 -1.3125 2.73 -1.3125 3.75 C-2.3025 3.75 -3.2925 3.75 -4.3125 3.75 C-4.6425 5.4 -4.9725 7.05 -5.3125 8.75 C-6.6325 8.75 -7.9525 8.75 -9.3125 8.75 C-7.925165 4.2096309 -5.3700603 -0.58054706 0 0 Z " fill="#2A2820" transform="translate(126.3125,58.25)"/>
<path d="M0 0 C0.66 0.33 1.32 0.66 2 1 C3.32 1 4.64 1 6 1 C6 2.98 6 4.96 6 7 C4.35 7.33 2.7 7.66 1 8 C-0.42944945 5.64561267 -1.08661261 4.51967567 -0.625 1.75 C-0.41875 1.1725 -0.2125 0.595 0 0 Z " fill="#FDF7E4" transform="translate(82,24)"/>
<path d="M0 0 C0.66 0 1.32 0 2 0 C2 0.66 2 1.32 2 2 C3.98 2.66 5.96 3.32 8 4 C5.53721199 6.46278801 3.29323018 6.99771255 0 8 C-0.38063221 5.6739143 -0.71269945 3.33944736 -1 1 C-0.67 0.67 -0.34 0.34 0 0 Z " fill="#E2DEC9" transform="translate(66,107)"/>
<path d="M0 0 C0.91007812 0.00902344 1.82015625 0.01804688 2.7578125 0.02734375 C3.45648438 0.03894531 4.15515625 0.05054688 4.875 0.0625 C4.875 1.0525 4.875 2.0425 4.875 3.0625 C3.25036158 3.11645478 1.62521459 3.15527195 0 3.1875 C-0.90492187 3.21070313 -1.80984375 3.23390625 -2.7421875 3.2578125 C-5.125 3.0625 -5.125 3.0625 -7.125 1.0625 C-4.60024538 -0.19987731 -2.81299534 -0.03606404 0 0 Z " fill="#F2F2E6" transform="translate(79.125,53.9375)"/>
<path d="M0 0 C0.33 0 0.66 0 1 0 C1.33 2.97 1.66 5.94 2 9 C-0.475 10.485 -0.475 10.485 -3 12 C-3.29344873 7.01137151 -3.05887078 4.03770942 0 0 Z " fill="#DFDCCE" transform="translate(30,40)"/>
<path d="M0 0 C0.33 0.99 0.66 1.98 1 3 C1.66 3.33 2.32 3.66 3 4 C-0.98196457 5.05404945 -3.98195309 4.84098656 -8 4 C-7.67 3.01 -7.34 2.02 -7 1 C-3.535 0.505 -3.535 0.505 0 0 Z " fill="#F0ECD9" transform="translate(75,106)"/>
<path d="M0 0 C1.60080151 4.00200378 0.29279692 7.04556236 -1 11 C-1.93423645 7.98968256 -2.04449911 7.13349732 -1 4 C-3.64 4.99 -6.28 5.98 -9 7 C-9.66 6.34 -10.32 5.68 -11 5 C-9.93458984 4.58427734 -9.93458984 4.58427734 -8.84765625 4.16015625 C-7.46900391 3.61681641 -7.46900391 3.61681641 -6.0625 3.0625 C-5.14597656 2.70285156 -4.22945313 2.34320313 -3.28515625 1.97265625 C-1.07581467 1.2003782 -1.07581467 1.2003782 0 0 Z " fill="#211E16" transform="translate(105,78)"/>
<path d="M0 0 C3.96 0 7.92 0 12 0 C11.01 0.495 11.01 0.495 10 1 C10 1.99 10 2.98 10 4 C5.23692563 4.95261487 0.8333472 5.08333357 -4 5 C-4 4.67 -4 4.34 -4 4 C-0.535 3.505 -0.535 3.505 3 3 C2.01 2.01 1.02 1.02 0 0 Z " fill="#C5C4B9" transform="translate(62,20)"/>
<path d="M0 0 C1.47906892 -0.02689216 2.95827483 -0.04634621 4.4375 -0.0625 C5.26121094 -0.07410156 6.08492187 -0.08570312 6.93359375 -0.09765625 C9 0 9 0 10 1 C10.04092937 3.33297433 10.04241723 5.66705225 10 8 C9.34 6.68 8.68 5.36 8 4 C7.01 4.33 6.02 4.66 5 5 C4.67 4.01 4.34 3.02 4 2 C1.99983534 0.79117904 1.99983534 0.79117904 0 0 Z " fill="#E2DFD1" transform="translate(52,119)"/>
<path d="M0 0 C0.33 0 0.66 0 1 0 C2.23852969 7.14765932 1.85888741 12.31311081 -1 19 C-1.66 19 -2.32 19 -3 19 C-2.125 13.25 -2.125 13.25 -1 11 C-0.7724985 9.12943209 -0.59037189 7.25314042 -0.4375 5.375 C-0.31181641 3.87066406 -0.31181641 3.87066406 -0.18359375 2.3359375 C-0.12300781 1.56507812 -0.06242187 0.79421875 0 0 Z " fill="#403B32" transform="translate(118,86)"/>
<path d="M0 0 C0 1.32 0 2.64 0 4 C-0.33 3.34 -0.66 2.68 -1 2 C-4.3 2.66 -7.6 3.32 -11 4 C-10.67 3.01 -10.34 2.02 -10 1 C-6.78548731 -0.60725635 -3.56387464 -0.05748185 0 0 Z " fill="#191715" transform="translate(46,73)"/>
<path d="M0 0 C2 2 2 2 2 5 C1.34 5 0.68 5 0 5 C0 5.99 0 6.98 0 8 C-0.66 8 -1.32 8 -2 8 C-2 7.34 -2 6.68 -2 6 C-2.66 6 -3.32 6 -4 6 C-4.66 4.68 -5.32 3.36 -6 2 C-4.7934375 1.7834375 -4.7934375 1.7834375 -3.5625 1.5625 C-1.07896294 1.25864751 -1.07896294 1.25864751 0 0 Z " fill="#070605" transform="translate(40,99)"/>
<path d="M0 0 C0.33 0.99 0.66 1.98 1 3 C1.99 3 2.98 3 4 3 C3.75 5.375 3.75 5.375 3 8 C0.9375 9.3125 0.9375 9.3125 -1 10 C-1.125 3.375 -1.125 3.375 0 0 Z " fill="#F6F2E1" transform="translate(51,69)"/>
<path d="M0 0 C0 0.33 0 0.66 0 1 C-0.61488281 1.14695312 -1.22976562 1.29390625 -1.86328125 1.4453125 C-7.39787952 2.92039146 -7.39787952 2.92039146 -11.0625 7.1875 C-11.371875 8.115625 -11.68125 9.04375 -12 10 C-12.33 10 -12.66 10 -13 10 C-12.63662961 3.58045641 -12.63662961 3.58045641 -9.875 1.0625 C-6.43298792 -0.20954794 -3.64158426 -0.21421084 0 0 Z " fill="#2D2A20" transform="translate(43,69)"/>
<path d="M0 0 C0.99 0.33 1.98 0.66 3 1 C3.99 0.67 4.98 0.34 6 0 C6.99 0.33 7.98 0.66 9 1 C8.34 1 7.68 1 7 1 C7 1.66 7 2.32 7 3 C5.02 3.99 3.04 4.98 1 6 C0.34 4.35 -0.32 2.7 -1 1 C-0.67 0.67 -0.34 0.34 0 0 Z " fill="#ECEAD8" transform="translate(29,67)"/>
<path d="M0 0 C2.1875 0.3125 2.1875 0.3125 4 1 C4 2.32 4 3.64 4 5 C4.66 5.33 5.32 5.66 6 6 C5.01 6.33 4.02 6.66 3 7 C-0.1875 5.0625 -0.1875 5.0625 -3 3 C-1.75 1.4375 -1.75 1.4375 0 0 Z " fill="#ECE8D7" transform="translate(44,53)"/>
<path d="M0 0 C0.33 0.99 0.66 1.98 1 3 C-1.31 5.31 -3.62 7.62 -6 10 C-6.99 9.67 -7.98 9.34 -9 9 C-6.03 6.03 -3.06 3.06 0 0 Z " fill="#444233" transform="translate(103,120)"/>
<path d="M0 0 C0.99 0.33 1.98 0.66 3 1 C3 1.99 3 2.98 3 4 C-0.63 4 -4.26 4 -8 4 C-8.33 3.34 -8.66 2.68 -9 2 C-4.545 1.505 -4.545 1.505 0 1 C0 0.67 0 0.34 0 0 Z " fill="#D1CCBF" transform="translate(56,113)"/>
<path d="M0 0 C1.21816406 0.03480469 1.21816406 0.03480469 2.4609375 0.0703125 C3.68683594 0.09738281 3.68683594 0.09738281 4.9375 0.125 C5.87722656 0.15980469 5.87722656 0.15980469 6.8359375 0.1953125 C6.8359375 0.5253125 6.8359375 0.8553125 6.8359375 1.1953125 C5.9490625 1.4428125 5.0621875 1.6903125 4.1484375 1.9453125 C0.73166615 3.23466018 -1.4438373 4.79511379 -4.1640625 7.1953125 C-4.2890625 4.8203125 -4.2890625 4.8203125 -4.1640625 2.1953125 C-2.1640625 0.1953125 -2.1640625 0.1953125 0 0 Z " fill="#F0EFE7" transform="translate(37.1640625,70.8046875)"/>
<path d="M0 0 C1.98 0.99 3.96 1.98 6 3 C4.625 5.5 4.625 5.5 3 8 C2.34 8 1.68 8 1 8 C1 6.68 1 5.36 1 4 C0.01 3.34 -0.98 2.68 -2 2 C-1.34 1.34 -0.68 0.68 0 0 Z " fill="#E4E3DC" transform="translate(85,55)"/>
<path d="M0 0 C3.3 0 6.6 0 10 0 C7.15467525 2.84532475 5.73922726 3.87823182 2 5 C1.01 4.67 0.02 4.34 -1 4 C-0.34 4 0.32 4 1 4 C0.67 2.68 0.34 1.36 0 0 Z " fill="#625F55" transform="translate(75,140)"/>
<path d="M0 0 C1 3 1 3 1 6 C1.99 7.485 1.99 7.485 3 9 C2.34 9.66 1.68 10.32 1 11 C-0.32 10.01 -1.64 9.02 -3 8 C-3.33 8.66 -3.66 9.32 -4 10 C-3.29445932 6.33118845 -1.72264494 3.29549466 0 0 Z " fill="#C3BFA5" transform="translate(91,117)"/>
<path d="M0 0 C1.32 0.33 2.64 0.66 4 1 C4.33 2.32 4.66 3.64 5 5 C3.1875 6.0625 3.1875 6.0625 1 7 C0.01 6.67 -0.98 6.34 -2 6 C-1.34 4.02 -0.68 2.04 0 0 Z " fill="#F3EFD7" transform="translate(92,118)"/>
<path d="M0 0 C0 0.66 0 1.32 0 2 C-0.969375 2.28875 -1.93875 2.5775 -2.9375 2.875 C-6.10664203 3.64214682 -6.10664203 3.64214682 -7 6 C-7 5.01 -7 4.02 -7 3 C-7.99 2.67 -8.98 2.34 -10 2 C-6.49223216 0.39644899 -3.85645121 -0.22036864 0 0 Z " fill="#15140F" transform="translate(79,111)"/>
<path d="M0 0 C0.99 0.66 1.98 1.32 3 2 C5.73872955 2.45772063 5.73872955 2.45772063 8.6875 2.625 C9.68136719 2.69976562 10.67523438 2.77453125 11.69921875 2.8515625 C12.45847656 2.90054688 13.21773437 2.94953125 14 3 C14 3.33 14 3.66 14 4 C8.06 4 2.12 4 -4 4 C-2.68 2.68 -1.36 1.36 0 0 Z " fill="#5B5952" transform="translate(69,91)"/>
<path d="M0 0 C0.66 1.32 1.32 2.64 2 4 C1.01 4.33 0.02 4.66 -1 5 C-1.33 5.66 -1.66 6.32 -2 7 C-2.99 6.01 -3.98 5.02 -5 4 C-3 1 -3 1 0 0 Z " fill="#ECE9D4" transform="translate(112,68)"/>
<path d="M0 0 C0.763125 0.0825 1.52625 0.165 2.3125 0.25 C2.3125 1.57 2.3125 2.89 2.3125 4.25 C-0.3275 4.25 -2.9675 4.25 -5.6875 4.25 C-3.34903846 0.31153846 -3.34903846 0.31153846 0 0 Z " fill="#050301" transform="translate(35.6875,54.75)"/>
<path d="M0 0 C1.32 0.33 2.64 0.66 4 1 C0.25 6.875 0.25 6.875 -2 8 C-2.33 7.01 -2.66 6.02 -3 5 C-2.67 4.34 -2.34 3.68 -2 3 C-1.34 3 -0.68 3 0 3 C0 2.01 0 1.02 0 0 Z " fill="#E0DDCA" transform="translate(104,113)"/>
<path d="M0 0 C2 3 2 3 1.5390625 5.69921875 C1.23742187 6.68535156 0.93578125 7.67148438 0.625 8.6875 C0.32851562 9.68136719 0.03203125 10.67523438 -0.2734375 11.69921875 C-0.51320313 12.45847656 -0.75296875 13.21773437 -1 14 C-2.62433191 11.49923002 -3.07333427 10.41017471 -2.5390625 7.421875 C-2.23742187 6.54015625 -1.93578125 5.6584375 -1.625 4.75 C-1.32851562 3.85796875 -1.03203125 2.9659375 -0.7265625 2.046875 C-0.48679687 1.37140625 -0.24703125 0.6959375 0 0 Z " fill="#494636" transform="translate(102,87)"/>
<path d="M0 0 C2.35953094 2.35953094 2.49141413 3.77895617 3 7 C0.5625 6.625 0.5625 6.625 -2 6 C-2.33 5.34 -2.66 4.68 -3 4 C-3.99 3.34 -4.98 2.68 -6 2 C-4.02 1.34 -2.04 0.68 0 0 Z " fill="#D7D4BF" transform="translate(93,40)"/>
<path d="M0 0 C-2.36292656 2.52588702 -3.66462511 3.88820837 -7 5 C-7.66 4.34 -8.32 3.68 -9 3 C-6.38997624 -0.48003168 -4.1689578 -0.27793052 0 0 Z " fill="#E5E4DB" transform="translate(127,56)"/>
<path d="M0 0 C0.99 0 1.98 0 3 0 C5 3 5 3 4.75 5.125 C4 7 4 7 2 8 C1.34 5.36 0.68 2.72 0 0 Z " fill="#D7D4D1" transform="translate(117,70)"/>
<path d="M0 0 C1.9451 2.91765 2.45276317 4.62537285 3 8 C2.34 8 1.68 8 1 8 C0.67 8.66 0.34 9.32 0 10 C-0.66 7.69 -1.32 5.38 -2 3 C-1.34 3 -0.68 3 0 3 C0 2.01 0 1.02 0 0 Z " fill="#1E1B17" transform="translate(114,63)"/>
<path d="M0 0 C0.99 0 1.98 0 3 0 C3.33 1.65 3.66 3.3 4 5 C1.69 5.33 -0.62 5.66 -3 6 C-2.01 4.02 -1.02 2.04 0 0 Z " fill="#11100D" transform="translate(54,98)"/>
<path d="M0 0 C2.25 -0.3125 2.25 -0.3125 5 0 C7.375 2.25 7.375 2.25 9 5 C8.75 7.3125 8.75 7.3125 8 9 C7.608125 8.2575 7.21625 7.515 6.8125 6.75 C4.86961158 3.80216929 2.83531533 2.06901389 0 0 Z " fill="#CFCECA" transform="translate(123,55)"/>
<path d="M0 0 C3.875 0.875 3.875 0.875 5 2 C5.04063832 3.66617115 5.042721 5.33388095 5 7 C5.66 7.33 6.32 7.66 7 8 C5.68 7.67 4.36 7.34 3 7 C2.87625 6.030625 2.7525 5.06125 2.625 4.0625 C2.41875 3.051875 2.2125 2.04125 2 1 C1.34 0.67 0.68 0.34 0 0 Z " fill="#201F1B" transform="translate(55,97)"/>
<path d="M0 0 C0.33 0 0.66 0 1 0 C1.13277344 0.62648437 1.26554687 1.25296875 1.40234375 1.8984375 C1.57894531 2.71570313 1.75554688 3.53296875 1.9375 4.375 C2.11152344 5.18710938 2.28554688 5.99921875 2.46484375 6.8359375 C2.92330693 9.029463 2.92330693 9.029463 4 11 C3.01 12.485 3.01 12.485 2 14 C1.46658816 12.42085985 0.94874237 10.83645613 0.4375 9.25 C0.14746094 8.36828125 -0.14257812 7.4865625 -0.44140625 6.578125 C-1.01697435 3.92165684 -0.89248371 2.52968894 0 0 Z " fill="#827F6F" transform="translate(27,63)"/>
<path d="M0 0 C1.32 0.33 2.64 0.66 4 1 C3.34 1 2.68 1 2 1 C2.33 2.32 2.66 3.64 3 5 C1.125 5.625 1.125 5.625 -1 6 C-1.66 5.34 -2.32 4.68 -3 4 C-2.01 3.67 -1.02 3.34 0 3 C0 2.01 0 1.02 0 0 Z " fill="#F3EDD4" transform="translate(69,70)"/>
<path d="M0 0 C1.21816406 0.03480469 1.21816406 0.03480469 2.4609375 0.0703125 C3.68683594 0.09738281 3.68683594 0.09738281 4.9375 0.125 C5.87722656 0.15980469 5.87722656 0.15980469 6.8359375 0.1953125 C6.8359375 1.1853125 6.8359375 2.1753125 6.8359375 3.1953125 C4.94875 2.9478125 4.94875 2.9478125 3.0234375 2.6953125 C0.57137165 2.37373009 -1.68056944 2.1953125 -4.1640625 2.1953125 C-2.1640625 0.1953125 -2.1640625 0.1953125 0 0 Z " fill="#F9F6EA" transform="translate(94.1640625,60.8046875)"/>
<path d="M0 0 C0.33 0 0.66 0 1 0 C1 2.97 1 5.94 1 9 C0.01 9.495 0.01 9.495 -1 10 C-1.99 9.34 -2.98 8.68 -4 8 C-3.525625 7.608125 -3.05125 7.21625 -2.5625 6.8125 C-0.64820367 4.59191626 -0.38733012 2.86624291 0 0 Z " fill="#D2D1C1" transform="translate(108,52)"/>
<path d="M0 0 C0.99 0.33 1.98 0.66 3 1 C2.43628586 4.26954202 1.50037734 5.82575883 -1 8 C-0.67 5.36 -0.34 2.72 0 0 Z " fill="#E1DECE" transform="translate(105,82)"/>
<path d="M0 0 C1.875 0.3125 1.875 0.3125 4 1 C4.66 1.99 5.32 2.98 6 4 C5.34 4.66 4.68 5.32 4 6 C4 5.34 4 4.68 4 4 C2.68 4 1.36 4 0 4 C0 2.68 0 1.36 0 0 Z " fill="#E0DFD0" transform="translate(122,62)"/>
<path d="M0 0 C-1.44253657 3.36591866 -3.33264727 5.51047079 -6 8 C-5.62403791 5.21788056 -5.32681541 3.4120716 -3.5625 1.1875 C-2 0 -2 0 0 0 Z " fill="#E4E5DA" transform="translate(68,48)"/>
<path d="M0 0 C-1.65 0.33 -3.3 0.66 -5 1 C-4.34 2.98 -3.68 4.96 -3 7 C-4.32 6.01 -5.64 5.02 -7 4 C-6.625 2.0625 -6.625 2.0625 -6 0 C-3.50907189 -1.24546405 -2.58919267 -0.7767578 0 0 Z " fill="#66645D" transform="translate(59,7)"/>
<path d="M0 0 C2.64 0 5.28 0 8 0 C8.33 0.66 8.66 1.32 9 2 C6.69 2.33 4.38 2.66 2 3 C1.34 2.01 0.68 1.02 0 0 Z " fill="#E1DFCE" transform="translate(74,138)"/>
<path d="M0 0 C2.475 0.99 2.475 0.99 5 2 C4.01 2.495 4.01 2.495 3 3 C3 4.32 3 5.64 3 7 C2.34 7 1.68 7 1 7 C0.67 4.69 0.34 2.38 0 0 Z " fill="#211D16" transform="translate(43,114)"/>
<path d="M0 0 C0.99 0.33 1.98 0.66 3 1 C3 2.32 3 3.64 3 5 C0.03 4.505 0.03 4.505 -3 4 C-2.01 2.68 -1.02 1.36 0 0 Z " fill="#EDE9DC" transform="translate(100,55)"/>
<path d="M0 0 C-0.99 0 -1.98 0 -3 0 C-3.33 0.99 -3.66 1.98 -4 3 C-6.97 2.505 -6.97 2.505 -10 2 C-6.19832777 -0.53444815 -4.31588991 -1.33941411 0 0 Z " fill="#D9D7CD" transform="translate(58,26)"/>
<path d="M0 0 C-2 2 -2 2 -4.625 2.125 C-5.40875 2.08375 -6.1925 2.0425 -7 2 C-7.33 1.34 -7.66 0.68 -8 0 C-4.71023192 -1.09658936 -3.28696233 -0.79953138 0 0 Z " fill="#0F0D0B" transform="translate(53,110)"/>
<path d="M0 0 C0.33 0 0.66 0 1 0 C1 2.31 1 4.62 1 7 C-0.32 6.34 -1.64 5.68 -3 5 C-2.67 4.01 -2.34 3.02 -2 2 C-1.34 2 -0.68 2 0 2 C0 1.34 0 0.68 0 0 Z " fill="#070403" transform="translate(113,59)"/>
<path d="M0 0 C0.33 0.66 0.66 1.32 1 2 C0.67 2.66 0.34 3.32 0 4 C0.99 4.33 1.98 4.66 3 5 C1.68 5.99 0.36 6.98 -1 8 C-1.625 5.6875 -1.625 5.6875 -2 3 C-1.34 2.01 -0.68 1.02 0 0 Z " fill="#21221E" transform="translate(65,42)"/>
<path d="M0 0 C0 0.33 0 0.66 0 1 C-1.2065625 1.185625 -1.2065625 1.185625 -2.4375 1.375 C-3.283125 1.58125 -4.12875 1.7875 -5 2 C-5.33 2.66 -5.66 3.32 -6 4 C-7.32 3.67 -8.64 3.34 -10 3 C-8.0130571 -0.97388579 -3.91761109 -0.08705802 0 0 Z " fill="#E0DECD" transform="translate(85,43)"/>
<path d="M0 0 C4 4.75 4 4.75 4 7 C2.0625 6.6875 2.0625 6.6875 0 6 C-1 3 -1 3 0 0 Z " fill="#DAD7CA" transform="translate(101,37)"/>
</svg>
